<?xml version="1.0" encoding="utf-8"?>
<!-- Generator: Adobe Illustrator 24.0.1, SVG Export Plug-In . SVG Version: 6.00 Build 0)  -->
<svg version="1.1" id="Layer_4" xmlns="http://www.w3.org/2000/svg" xmlns:xlink="http://www.w3.org/1999/xlink" x="0px" y="0px"
	 viewBox="0 0 88.82 88.82" style="enable-background:new 0 0 88.82 88.82;" xml:space="preserve">
<style type="text/css">
	.st0{fill:#C6C6C6;}
	.st1{fill:#EDEDED;}
	.st2{fill:#575756;}
	.st3{opacity:0.1;fill:#1D1D1B;}
</style>
<g>
	<g>
		<rect x="15.9" y="33.63" class="st0" width="13.25" height="2.5"/>
		<rect x="15.9" y="71" class="st0" width="13.25" height="2.5"/>
		<ellipse class="st1" cx="22.52" cy="53.57" rx="8.08" ry="22.94"/>
	</g>
	<g>
		<rect x="37.4" y="33.63" class="st0" width="13.25" height="2.5"/>
		<rect x="37.4" y="71" class="st0" width="13.25" height="2.5"/>
		<ellipse class="st1" cx="44.02" cy="53.57" rx="8.08" ry="22.94"/>
	</g>
	<g>
		<rect x="58.9" y="33.63" class="st0" width="13.25" height="2.5"/>
		<rect x="58.9" y="71" class="st0" width="13.25" height="2.5"/>
		<ellipse class="st1" cx="65.52" cy="53.57" rx="8.08" ry="22.94"/>
	</g>
	<g>
		<rect x="9.01" y="73.5" class="st1" width="70.03" height="3.63"/>
		<rect x="6.97" y="77.13" class="st1" width="74.1" height="3.63"/>
		<rect x="4.65" y="80.75" class="st1" width="78.75" height="3.63"/>
		<rect x="9.01" y="75.32" class="st0" width="70.03" height="1.81"/>
		<rect x="6.97" y="78.94" class="st0" width="74.1" height="1.81"/>
		<rect x="4.65" y="82.57" class="st0" width="78.75" height="1.81"/>
	</g>
	<rect x="12.65" y="29.13" class="st1" width="62.75" height="4.5"/>
	<rect x="9.5" y="24.77" class="st0" width="69.04" height="4.36"/>
	<g>
		<g>
			<polygon class="st0" points="9.5,24.77 44.02,4 78.54,24.77 			"/>
			<path class="st0" d="M44.02,8.67l20.11,12.1H23.91L44.02,8.67L44.02,8.67z M44.02,4L9.5,24.77h69.04L44.02,4L44.02,4z"/>
		</g>
		<g>
			<polygon class="st0" points="9.5,24.77 44.02,4 78.54,24.77 			"/>
			<path class="st1" d="M44.02,8.67l20.11,12.1H23.91L44.02,8.67L44.02,8.67z M44.02,4L9.5,24.77h69.04L44.02,4L44.02,4z"/>
		</g>
	</g>
	<path class="st2" d="M46.79,16.22c-0.12-0.25-0.28-0.46-0.47-0.63c-0.19-0.17-0.41-0.32-0.65-0.43c-0.24-0.11-0.48-0.21-0.71-0.3
		l-0.64-0.23c-0.25-0.1-0.45-0.21-0.61-0.33c-0.16-0.12-0.24-0.3-0.24-0.53c0-0.21,0.07-0.37,0.22-0.5c0.59-0.46,1.6-0.24,1.72-0.2
		c0.12,0.04,0.23,0.09,0.33,0.13c0.1,0.05,0.18,0.09,0.25,0.12c0.07,0.04,0.15,0.05,0.22,0.05c0.1,0,0.18-0.03,0.26-0.08
		c0.07-0.05,0.13-0.12,0.18-0.2c0.05-0.08,0.08-0.16,0.1-0.24c0.02-0.08,0.03-0.15,0.03-0.22c0-0.16-0.06-0.29-0.19-0.39
		c-0.12-0.1-0.28-0.19-0.46-0.26c-0.19-0.07-0.38-0.12-0.6-0.14c-0.21-0.03-0.41-0.04-0.58-0.04v-0.28c0-0.07-0.04-0.13-0.11-0.19
		c-0.07-0.05-0.16-0.08-0.25-0.08c-0.1,0-0.19,0.03-0.26,0.08c-0.07,0.05-0.11,0.12-0.11,0.19v0.3c-0.27,0.04-0.53,0.1-0.78,0.19
		c-0.25,0.09-0.47,0.22-0.66,0.39c-0.19,0.17-0.34,0.37-0.46,0.62c-0.11,0.25-0.17,0.54-0.17,0.88c0,0.34,0.06,0.63,0.19,0.86
		c0.12,0.23,0.29,0.43,0.49,0.59c0.2,0.16,0.42,0.29,0.67,0.4c0.25,0.11,0.49,0.21,0.73,0.3l0.64,0.26c0.23,0.1,0.42,0.22,0.57,0.37
		c0.15,0.15,0.23,0.35,0.23,0.61c0,0.25-0.07,0.44-0.22,0.59c-0.15,0.14-0.34,0.24-0.58,0.29c-0.2,0.1-0.83,0.05-1.24-0.16
		c-0.16-0.08-0.31-0.17-0.43-0.27c-0.12-0.09-0.24-0.18-0.34-0.25c-0.1-0.07-0.2-0.11-0.3-0.11c-0.09,0-0.16,0.02-0.23,0.07
		c-0.07,0.05-0.13,0.11-0.19,0.19c-0.05,0.08-0.1,0.16-0.13,0.25c-0.03,0.09-0.05,0.17-0.05,0.24c0,0.15,0.06,0.3,0.17,0.45
		c0.11,0.15,0.27,0.29,0.47,0.42c0.2,0.13,0.44,0.23,0.72,0.32c0.28,0.08,0.58,0.12,0.9,0.12v0.3c0,0.07,0.04,0.13,0.11,0.19
		c0.07,0.05,0.16,0.08,0.26,0.08c0.09,0,0.18-0.03,0.25-0.08c0.07-0.05,0.11-0.12,0.11-0.19v-0.33c0.6-0.09,1.08-0.33,1.46-0.71
		c0.37-0.38,0.56-0.9,0.56-1.55C46.97,16.77,46.91,16.47,46.79,16.22z"/>
	<g>
		<path class="st1" d="M46.36,15.75c-0.12-0.25-0.28-0.46-0.47-0.63c-0.19-0.17-0.41-0.32-0.65-0.43c-0.24-0.11-0.48-0.21-0.71-0.3
			l-0.64-0.23c-0.25-0.1-0.45-0.21-0.61-0.33c-0.16-0.12-0.24-0.3-0.24-0.53c0-0.21,0.07-0.37,0.22-0.5c0.59-0.46,1.6-0.24,1.72-0.2
			c0.12,0.04,0.23,0.09,0.33,0.13c0.1,0.05,0.18,0.09,0.25,0.12c0.07,0.04,0.15,0.05,0.22,0.05c0.1,0,0.18-0.03,0.26-0.08
			c0.07-0.05,0.13-0.12,0.18-0.2c0.05-0.08,0.08-0.16,0.1-0.24c0.02-0.08,0.03-0.15,0.03-0.22c0-0.16-0.06-0.29-0.19-0.39
			c-0.12-0.1-0.28-0.19-0.46-0.26c-0.19-0.07-0.38-0.12-0.6-0.14c-0.21-0.03-0.41-0.04-0.58-0.04v-0.28c0-0.07-0.04-0.13-0.11-0.19
			c-0.07-0.05-0.16-0.08-0.25-0.08c-0.1,0-0.19,0.03-0.26,0.08c-0.07,0.05-0.11,0.12-0.11,0.19v0.3c-0.27,0.04-0.53,0.1-0.78,0.19
			c-0.25,0.09-0.47,0.22-0.66,0.39c-0.19,0.17-0.34,0.37-0.46,0.62c-0.11,0.25-0.17,0.54-0.17,0.88c0,0.34,0.06,0.63,0.19,0.86
			c0.12,0.23,0.29,0.43,0.49,0.59c0.2,0.16,0.42,0.29,0.67,0.4c0.24,0.11,0.49,0.21,0.73,0.3l0.64,0.26
			c0.23,0.1,0.42,0.22,0.57,0.37c0.15,0.15,0.23,0.35,0.23,0.61c0,0.25-0.07,0.44-0.22,0.59c-0.15,0.14-0.34,0.24-0.58,0.29
			c-0.2,0.1-0.83,0.05-1.24-0.16c-0.16-0.08-0.31-0.17-0.43-0.27c-0.12-0.09-0.24-0.18-0.34-0.25c-0.1-0.07-0.2-0.11-0.3-0.11
			c-0.09,0-0.16,0.02-0.23,0.07c-0.07,0.05-0.13,0.11-0.19,0.19c-0.05,0.08-0.1,0.16-0.13,0.25c-0.03,0.09-0.05,0.17-0.05,0.24
			c0,0.15,0.06,0.3,0.17,0.45c0.11,0.15,0.27,0.29,0.47,0.42c0.2,0.13,0.44,0.23,0.72,0.32c0.28,0.08,0.58,0.12,0.9,0.12v0.3
			c0,0.07,0.04,0.13,0.11,0.19c0.07,0.05,0.16,0.08,0.26,0.08c0.09,0,0.18-0.03,0.25-0.08c0.07-0.05,0.11-0.12,0.11-0.19v-0.33
			c0.6-0.09,1.08-0.33,1.46-0.71c0.37-0.38,0.56-0.9,0.56-1.55C46.54,16.3,46.48,16,46.36,15.75z"/>
	</g>
	<polygon class="st3" points="9.5,24.77 9.5,29.13 12.65,29.13 12.65,33.63 44.02,33.63 44.02,4 	"/>
	<path class="st3" d="M22.52,33.63H15.9v2.5h1.38c-1.28,11.59-1.28,23.29,0,34.88H15.9v2.5h6.63V33.63z"/>
	<path class="st3" d="M44.02,33.63H37.4v2.5h1.38c-1.28,11.59-1.28,23.29,0,34.88H37.4v2.5h6.63V33.63z"/>
	<path class="st3" d="M65.52,33.63H58.9v2.5h1.38c-1.28,11.59-1.28,23.29,0,34.88H58.9v2.5h6.62V33.63z"/>
	<polygon class="st3" points="44.02,73.5 9.01,73.5 9.01,75.32 9.01,77.13 6.97,77.13 6.97,78.94 6.97,80.75 4.65,80.75 4.65,82.57 
		4.65,84.38 44.02,84.38 	"/>
</g>
</svg>
