<?xml version="1.0" encoding="utf-8"?>
<!-- Generator: Adobe Illustrator 21.1.0, SVG Export Plug-In . SVG Version: 6.00 Build 0)  -->
<svg version="1.1" id="圖層_1" xmlns="http://www.w3.org/2000/svg" xmlns:xlink="http://www.w3.org/1999/xlink" x="0px" y="0px"
	 viewBox="0 0 20 20" style="enable-background:new 0 0 20 20;" xml:space="preserve">
<style type="text/css">
	.st0{fill:#CAA653;}
</style>
<g>
	<polygon class="st0" points="0.6,19.9 6.6,13.9 0.6,8 	"/>
	<polygon class="st0" points="19.4,19.9 13.4,13.9 19.4,8 	"/>
	<g>
		<path class="st0" d="M10.5,12.4c-0.3-0.3-0.8-0.3-1.1,0L2,19.8h15.8L10.5,12.4z"/>
	</g>
	<path class="st0" d="M16.5,9.8V3.6c0-0.4-0.4-0.8-0.8-0.8H4.2c-0.4,0-0.8,0.4-0.8,0.8v6.2l3.7,3.7l2.3-2c0.3-0.3,0.8-0.3,1.1,0
		l2.2,1.9L16.5,9.8z"/>
	<polygon class="st0" points="2.4,4.6 2.4,8.5 0.6,6.5 	"/>
	<polygon class="st0" points="13,1.9 7,1.9 10.1,0.1 	"/>
	<polygon class="st0" points="17.6,4.6 17.6,8.5 19.4,6.5 	"/>
</g>
</svg>
