<?xml version="1.0" encoding="utf-8"?>
<!-- Generator: Adobe Illustrator 21.1.0, SVG Export Plug-In . SVG Version: 6.00 Build 0)  -->
<svg version="1.1" id="圖層_1" xmlns="http://www.w3.org/2000/svg" xmlns:xlink="http://www.w3.org/1999/xlink" x="0px" y="0px"
	 viewBox="0 0 22 22" style="enable-background:new 0 0 22 22;" xml:space="preserve">
<style type="text/css">
	.st0{fill:#FFFFFF;}
</style>
<path id="形狀_15" class="st0" d="M11,1.5c-5.2,0-9.5,4.2-9.5,9.5s4.2,9.5,9.5,9.5c5.2,0,9.5-4.2,9.5-9.5c0,0,0,0,0,0
	C20.5,5.8,16.3,1.5,11,1.5z M15.1,12.5l-5.3,3C9,16,8,15.7,7.6,14.9c-0.1-0.3-0.2-0.5-0.2-0.8V7.9C7.3,7,8.1,6.2,9,6.2
	c0.3,0,0.6,0.1,0.9,0.2l5.3,3.2c0.8,0.5,1,1.5,0.6,2.3C15.6,12.2,15.3,12.4,15.1,12.5z"/>
</svg>
