<?xml version="1.0" encoding="utf-8"?>
<!-- Generator: Adobe Illustrator 24.0.1, SVG Export Plug-In . SVG Version: 6.00 Build 0)  -->
<svg version="1.1" id="Icons" xmlns="http://www.w3.org/2000/svg" xmlns:xlink="http://www.w3.org/1999/xlink" x="0px" y="0px"
	 viewBox="0 0 75.93 46.17" style="enable-background:new 0 0 75.93 46.17;" xml:space="preserve">
<style type="text/css">
	.st0{fill:#F5522B;}
	.st1{fill:#AD3A1E;}
	.st2{fill:#F0F0F0;}
	.st3{fill:#575757;}
	.st4{opacity:0.3;}
	.st5{fill:#FFFFFF;}
	.st6{opacity:0.35;}
	.st7{fill:#7EBFD7;}
	.st8{fill:#5395BE;}
	.st9{opacity:0.2;}
	.st10{fill:#FFC84D;}
	.st11{fill:#FFB001;}
</style>
<g>
	<g>
		<g>
			<path class="st0" d="M36.21,18.63c0,8.69-6.29,15.91-14.57,17.34c-0.98,0.18-2,0.26-3.04,0.26c-6.6,0-12.36-3.64-15.36-9.01
				C1.81,24.68,1,21.75,1,18.63C1,8.91,8.88,1.02,18.6,1.02c2.96,0,5.74,0.73,8.19,2.02c2.24,1.17,4.17,2.81,5.7,4.77
				C34.83,10.8,36.21,14.55,36.21,18.63z"/>
		</g>
		<g>
			<path class="st1" d="M29.17,18.62c0,5.83-4.73,10.56-10.56,10.56S8.04,24.46,8.04,18.62c0-5.83,4.73-10.56,10.56-10.56
				S29.17,12.79,29.17,18.62z"/>
		</g>
		<g>
			<path class="st2" d="M28.29,18.62c0,5.35-4.34,9.68-9.69,9.68c-5.35,0-9.68-4.34-9.68-9.68c0-5.35,4.33-9.68,9.68-9.68
				C23.95,8.94,28.29,13.28,28.29,18.62z"/>
		</g>
		<g>
			<path class="st3" d="M20.71,18.02c-0.07-0.05-0.14-0.1-0.22-0.15c-0.51-0.29-1.13-0.43-1.78-0.43c-0.52,0-0.9,0.12-1.33,0.33
				l0.2-2.45h3.8v-1.53H16l-0.3,4.97l0.87,0.55c0.6-0.4,0.97-0.57,1.62-0.57c0.47,0,0.87,0.12,1.18,0.36
				c0.27,0.19,0.47,0.48,0.56,0.83c0.07,0.21,0.11,0.44,0.11,0.7c0,0.71-0.28,1.25-0.73,1.57c-0.33,0.25-0.75,0.37-1.22,0.37
				c-0.75,0-1.36-0.28-1.86-0.66c-0.18-0.12-0.34-0.26-0.49-0.41l-0.85,1.17c0.04,0.04,0.08,0.08,0.13,0.11
				c0.74,0.7,1.77,1.28,3.32,1.28c0.24,0,0.47-0.02,0.7-0.06c1.56-0.27,2.85-1.49,2.85-3.41C21.88,19.37,21.42,18.52,20.71,18.02z"
				/>
		</g>
		<g class="st4">
			<path class="st5" d="M26.79,3.04C25.56,15.61,15.71,25.66,3.24,27.21C1.81,24.68,1,21.75,1,18.62C1,8.9,8.88,1.02,18.6,1.02
				C21.56,1.02,24.34,1.75,26.79,3.04z"/>
		</g>
		<g class="st6">
			<path class="st5" d="M13.45,13.99c-2.62,3.85-6.15,6.01-7.9,4.82C3.8,17.62,4.5,13.54,7.11,9.69c2.62-3.85,6.15-6.01,7.9-4.82
				C16.76,6.06,16.06,10.14,13.45,13.99z"/>
		</g>
	</g>
	<g>
		<g>
			<path class="st7" d="M75.08,18.63c0,9.73-7.88,17.6-17.61,17.6c-1.03,0-2.04-0.09-3.03-0.25c-5.31-0.93-9.8-4.22-12.33-8.76
				c-1.44-2.54-2.24-5.47-2.24-8.59c0-4.08,1.38-7.83,3.71-10.81c3.22-4.14,8.25-6.8,13.89-6.8c2.96,0,5.74,0.73,8.19,2.02
				C71.27,5.99,75.08,11.87,75.08,18.63z"/>
		</g>
		<g>
			<path class="st8" d="M68.04,18.62c0,5.83-4.73,10.56-10.56,10.56c-5.84,0-10.56-4.73-10.56-10.56c0-5.83,4.73-10.56,10.56-10.56
				C63.31,8.06,68.04,12.79,68.04,18.62z"/>
		</g>
		<g>
			<path class="st2" d="M67.16,18.62c0,5.35-4.34,9.68-9.68,9.68c-5.35,0-9.68-4.34-9.68-9.68c0-5.35,4.34-9.68,9.68-9.68
				C62.82,8.94,67.16,13.28,67.16,18.62z"/>
		</g>
		<g>
			<path class="st3" d="M54.08,13.79v1.53h4.77c-1.32,1.83-2.05,3.45-2.45,5.4c-0.02,0.05-0.03,0.11-0.04,0.16
				c-0.17,0.91-0.27,1.88-0.32,2.98h1.86c0.1-2.13,0.26-3.73,0.76-5.21c0.43-1.25,1.1-2.41,2.19-3.76v-1.11H54.08z"/>
		</g>
		<g class="st4">
			<path class="st5" d="M65.66,3.04c-0.24,2.53-0.85,4.95-1.74,7.21c-0.11,0.29-0.22,0.57-0.34,0.85c-1.21,2.8-2.88,5.35-4.91,7.56
				c-0.7,0.77-1.44,1.5-2.23,2.17c-0.02,0.02-0.04,0.04-0.06,0.05c-1.88,1.62-3.98,2.97-6.25,4.03c-0.27,0.13-0.55,0.26-0.84,0.37
				c-2.25,0.96-4.66,1.62-7.16,1.93c-1.44-2.54-2.24-5.47-2.24-8.59c0-4.08,1.38-7.83,3.71-10.81c3.22-4.14,8.25-6.8,13.89-6.8
				C60.43,1.02,63.22,1.75,65.66,3.04z"/>
		</g>
		<g class="st6">
			<path class="st5" d="M52.32,13.99c-2.62,3.85-6.15,6.01-7.9,4.82c-1.75-1.19-1.04-5.27,1.57-9.12c2.62-3.85,6.15-6.01,7.9-4.82
				C55.63,6.06,54.93,10.14,52.32,13.99z"/>
		</g>
	</g>
	<path class="st9" d="M32.48,7.82c2.34,2.98,3.73,6.73,3.73,10.81c0,8.69-6.29,15.91-14.57,17.34c-0.11-0.17-0.2-0.33-0.3-0.5
		c-1.08-1.91-1.84-4.04-2.19-6.29c-0.05-0.29-0.09-0.58-0.13-0.87c-0.08-0.71-0.12-1.44-0.12-2.17c0-0.72,0.04-1.43,0.12-2.13
		c0.06-0.61,0.16-1.21,0.28-1.8c0.16-0.77,0.37-1.53,0.62-2.26c0.22-0.66,0.48-1.29,0.78-1.92c0.17-0.38,0.35-0.74,0.55-1.1
		c0.56-1.04,1.22-2.01,1.97-2.91c0.67-0.81,1.4-1.57,2.19-2.25c0.22-0.2,0.45-0.4,0.68-0.57C27.98,9.67,30.13,8.52,32.48,7.82z"/>
	<path class="st9" d="M57.18,26.13c0,0.74-0.04,1.46-0.12,2.17c-0.04,0.29-0.07,0.58-0.12,0.87c-0.39,2.46-1.25,4.75-2.48,6.8
		c-5.31-0.93-9.8-4.22-12.33-8.76c-1.44-2.54-2.24-5.47-2.24-8.59c0-4.08,1.38-7.83,3.71-10.81c1.01,0.3,1.99,0.69,2.92,1.16
		c0.14,0.06,0.29,0.13,0.43,0.21c1.07,0.56,2.09,1.23,3.04,1.99c0.23,0.18,0.46,0.37,0.69,0.56c0.67,0.6,1.3,1.23,1.88,1.91
		c1.75,2.03,3.08,4.44,3.86,7.08c0.01,0.04,0.03,0.07,0.03,0.11c0.29,0.98,0.49,2,0.62,3.04C57.13,24.61,57.18,25.36,57.18,26.13z"
		/>
	<g>
		<g>
			<path class="st10" d="M55.64,27.66c0,9.73-7.88,17.61-17.61,17.61c-6.6,0-12.36-3.64-15.36-9.01c-1.44-2.53-2.25-5.47-2.25-8.59
				c0-9.72,7.89-17.61,17.61-17.61c2.96,0,5.74,0.73,8.19,2.03C51.83,15.02,55.64,20.9,55.64,27.66z"/>
		</g>
		<g>
			<path class="st11" d="M48.6,27.66c0,5.83-4.73,10.56-10.56,10.56c-5.83,0-10.56-4.73-10.56-10.56c0-5.83,4.73-10.56,10.56-10.56
				C43.87,17.1,48.6,21.82,48.6,27.66z"/>
		</g>
		<g>
			<path class="st2" d="M47.72,27.66c0,5.35-4.33,9.68-9.68,9.68s-9.68-4.34-9.68-9.68c0-5.35,4.34-9.68,9.68-9.68
				S47.72,22.31,47.72,27.66z"/>
		</g>
		<g>
			<path class="st3" d="M35.2,30.5c0.6,0.62,1.38,1.11,2.39,1.11c1.09,0,1.85-0.57,1.85-1.52c0-1.05-0.67-1.71-2.96-1.71v-1.33
				c1.98,0,2.63-0.68,2.63-1.62c0-0.84-0.57-1.35-1.49-1.35c-0.79,0-1.41,0.38-2.03,0.95l-0.94-1.13c0.86-0.76,1.82-1.27,3.03-1.27
				c1.93,0,3.27,0.95,3.27,2.66c0,1.13-0.67,1.89-1.76,2.31v0.06c1.19,0.32,2.09,1.17,2.09,2.5c0,1.84-1.6,2.92-3.54,2.92
				c-1.63,0-2.71-0.63-3.42-1.43L35.2,30.5z"/>
		</g>
		<g class="st4">
			<path class="st5" d="M46.23,12.08c-1.23,12.57-11.07,22.61-23.55,24.17c-1.44-2.53-2.25-5.47-2.25-8.59
				c0-9.72,7.89-17.61,17.61-17.61C40.99,10.05,43.78,10.78,46.23,12.08z"/>
		</g>
		<g class="st6">
			<path class="st5" d="M32.88,23.02c-2.62,3.85-6.15,6.01-7.9,4.82c-1.75-1.19-1.05-5.27,1.57-9.12c2.61-3.85,6.15-6.01,7.9-4.82
				C36.2,15.09,35.5,19.18,32.88,23.02z"/>
		</g>
	</g>
</g>
</svg>
