<?xml version="1.0" encoding="utf-8"?>
<!-- Generator: Adobe Illustrator 21.1.0, SVG Export Plug-In . SVG Version: 6.00 Build 0)  -->
<svg version="1.1" id="圖層_1" xmlns="http://www.w3.org/2000/svg" xmlns:xlink="http://www.w3.org/1999/xlink" x="0px" y="0px"
	 viewBox="0 0 20 20" style="enable-background:new 0 0 20 20;" xml:space="preserve">
<style type="text/css">
	.st0{fill:#CAA653;}
</style>
<path class="st0" d="M8.2,11.9c0.3,0.2,0.5,0.3,0.8,0.4c0.4,0.2,0.8,0.3,1.3,0.2c0.3-0.1,0.5-0.2,0.6-0.5c0.1-0.3,0-0.6-0.3-0.9
	c-0.1-0.1-0.3-0.2-0.5-0.3c-0.4-0.2-0.8-0.4-1.2-0.7C8.3,9.8,7.9,9.5,7.8,9C7.5,7.8,8,6.7,9.3,6.3c0.1,0,0.2-0.1,0.2-0.2
	c0-0.3,0-0.6,0-0.8c0-0.1,0-0.2,0.2-0.2c0.3,0,0.5,0,0.8,0c0.1,0,0.2,0,0.2,0.2c0,0.3,0,0.5,0,0.8c0,0.1,0,0.2,0.2,0.2
	c0.6,0.1,1,0.4,1.4,0.8c0.1,0.1,0.1,0.1,0,0.2c-0.2,0.2-0.4,0.5-0.6,0.7c-0.1,0.1-0.2,0.1-0.3,0C11,7.7,10.5,7.5,10,7.6
	C9.7,7.6,9.5,7.8,9.4,8.1c-0.1,0.3,0,0.6,0.3,0.8c0.4,0.2,0.8,0.4,1.2,0.7c0.4,0.2,0.8,0.4,1.1,0.8c0.9,1.1,0.4,2.9-1,3.4
	c-0.4,0.1-0.4,0.1-0.4,0.5c0,0.3,0,0.5,0,0.8c-0.4,0-0.7,0-1.1,0c0-0.3,0-0.6,0-0.9c0-0.2-0.1-0.3-0.3-0.3c-0.6-0.1-1.2-0.3-1.7-0.7
	C7.5,13,7.4,13,7.5,12.9C7.7,12.5,7.9,12.2,8.2,11.9z"/>
<path class="st0" d="M10,0.1C4.5,0.1,0,4.5,0,10s4.5,10,10,10s10-4.5,10-10S15.5,0.1,10,0.1z M17,4.2l1.6,2.7l-1.8,1l-1.6-2.7
	L17,4.2z M8.4,1.1h3.2v2.1H8.4V1.1z M2.9,4.2l1.8,1L3.2,8l-1.8-1L2.9,4.2z M2.9,16l-1.6-2.7l1.8-1l1.6,2.7L2.9,16z M11.6,19.1H8.4
	V17h3.2V19.1z M10,16c-3.3,0-6-2.7-6-6s2.7-6,6-6s6,2.7,6,6S13.3,16,10,16z M17,16l-1.8-1l1.6-2.7l1.8,1L17,16z"/>
</svg>
