<?xml version="1.0" encoding="utf-8"?>
<!-- Generator: Adobe Illustrator 21.1.0, SVG Export Plug-In . SVG Version: 6.00 Build 0)  -->
<svg version="1.1" id="圖層_1" xmlns="http://www.w3.org/2000/svg" xmlns:xlink="http://www.w3.org/1999/xlink" x="0px" y="0px"
	 viewBox="0 0 22 22" style="enable-background:new 0 0 22 22;" xml:space="preserve">
<style type="text/css">
	.st0{fill:#990000;}
</style>
<path id="形狀_16" class="st0" d="M8.3,13.3v2.3c0,0.2,0.1,0.4,0.3,0.5c0.2,0.1,0.4,0,0.6-0.1l4.4-4.7c0.2-0.2,0.2-0.5,0-0.7
	L9.2,5.8C9,5.6,8.8,5.6,8.6,5.6C8.4,5.7,8.3,5.9,8.3,6.1v2.3H8.1c-3.7,0-6.7,3.1-6.7,6.8v1c0,0.2,0.2,0.4,0.4,0.5c0,0,0.1,0,0.1,0
	c0.2,0,0.4-0.1,0.5-0.3c0.9-1.9,2.9-3.2,5-3.2L8.3,13.3L8.3,13.3z M17,0H8.1c-2,0-3.5,1.6-3.5,3.6v1.8c0,0.4,0.3,0.7,0.7,0.7
	C5.7,6.1,6,5.8,6,5.4V3.6c0-1.2,0.9-2.1,2.1-2.2H17c1.2,0,2.1,1,2.1,2.2v14.8c0,1.2-0.9,2.1-2.1,2.2c0,0,0,0,0,0H8.1
	c-1.2,0-2.1-1-2.1-2.1c0,0,0,0,0,0v-1.6c0-0.4-0.3-0.7-0.7-0.7c-0.4,0-0.7,0.3-0.7,0.7v1.6c0,2,1.5,3.6,3.5,3.6H17
	c2,0,3.5-1.6,3.5-3.6V3.6C20.5,1.6,19,0,17,0L17,0z"/>
</svg>
